<?xml version="1.0" encoding="UTF-8"?>
<svg width="256px" height="256px" viewBox="0 0 256 256" version="1.1" xmlns="http://www.w3.org/2000/svg">
    <g stroke="none" stroke-width="1" fill="none" fill-rule="evenodd">
        <circle fill="#1976D2" cx="128" cy="128" r="128"/>
        <path d="M184.5,169.5 L146.7,169.5 L134.2,144.7 C142.3,139.2 147.8,130.5 147.8,118.2 C147.8,99.9 133.1,85.2 114.8,85.2 C96.5,85.2 81.8,99.9 81.8,118.2 C81.8,136.5 96.5,151.2 114.8,151.2 C116.7,151.2 118.6,151 120.4,150.6 L134.9,179.5 C135.8,181.2 137.5,182.2 139.4,182.2 L184.5,182.2 C187.3,182.2 189.5,180 189.5,177.2 L189.5,174.5 C189.5,171.7 187.3,169.5 184.5,169.5 Z M114.8,138.5 C103.5,138.5 94.5,129.5 94.5,118.2 C94.5,106.9 103.5,97.9 114.8,97.9 C126.1,97.9 135.1,106.9 135.1,118.2 C135.1,129.5 126.1,138.5 114.8,138.5 Z" fill="#FFFFFF"/>
    </g>
</svg>
